PathFileType	4	(X/Y/Z)	/Users/visionmauri/1_1_1_f_Sports2D/1_1_1_f_Sports2D_m_person00.trc
DataRate	CameraRate	NumFrames	NumMarkers	Units	OrigDataRate	OrigDataStartFrame	OrigNumFrames
30.0	30.0	11	22	m	30.0	313	358
Frame#	Time	Hip			RHip			RKnee			RAnkle			RBigToe			RSmallToe			RHeel			LHip			LKnee			LAnkle			LBigToe			LSmallToe			LHeel			Neck			Head			Nose			RShoulder			RElbow			RWrist			LShoulder			LElbow			LWrist			
		X1	Y1	Z1	X2	Y2	Z2	X3	Y3	Z3	X4	Y4	Z4	X5	Y5	Z5	X6	Y6	Z6	X7	Y7	Z7	X8	Y8	Z8	X9	Y9	Z9	X10	Y10	Z10	X11	Y11	Z11	X12	Y12	Z12	X13	Y13	Z13	X14	Y14	Z14	X15	Y15	Z15	X16	Y16	Z16	X17	Y17	Z17	X18	Y18	Z18	X19	Y19	Z19	X20	Y20	Z20	X21	Y21	Z21	X22	Y22	Z22
313	10.462558356676004	0.5539977597433418	0.7549511843969386	0.0301	0.46752034224739025	0.678591476340427	0.0301	0.6549798800398657	0.2976834424920164	0.129	0.8627745654130519	-0.06707257063656288	0.023	0.914103414326468	-0.20543944629209102	0.2179	0.8532033820936857	-0.21773557319565157	0.1804	0.9186789910927236	-0.11101545907820641	-0.0119	0.6650527851625236	0.7852064235452223	0.0301	0.8232310774565218	0.4669397287328105	0.129	1.0070442630438872	0.014980608338210969	0.023	1.050274746179928	-0.11502209819411231	0.2179	1.0995302324766785	-0.08741226351442	0.1804	1.027501213130227	-0.07837410241949695	-0.0119	0.28557305409639994	1.3114699449980602	0.0008	0.19540582366708797	1.5411556919770992	0.0655	0.27447434730020853	1.3519335660953602	0.1076	0.12926540693598015	1.158512964628616	-0.01275	0.16252146623550237	0.8730572361718227	0.0702	0.22931987888041858	0.6547754696802612	0.1076	0.48975828238997254	1.341624927169022	-0.01275	0.6793061173646538	1.089491063594134	0.0702	0.681875619969869	1.110357602537548	0.1076
314	10.495985060690943	0.5520723583362898	0.7540115623542887	0.0301	0.4676041416379814	0.6765730963605119	0.0301	0.6542654920270153	0.29755080932504685	0.129	0.8629428859195899	-0.06635969848996054	0.023	0.9128255307335863	-0.20449443859216354	0.2179	0.8525131579809858	-0.2174754459154731	0.1804	0.9182600078315503	-0.11119723335635405	-0.0119	0.662956115583565	0.7854812744321972	0.0301	0.8083948646097012	0.48784853896115665	0.129	0.9998932689268127	0.014824293118086983	0.023	1.0578154592503	-0.11206848108060866	0.2179	1.1012342994264859	-0.08735823188693966	0.1804	1.0176506160222036	-0.07778948610500508	-0.0119	0.2826732643708734	1.3161480006462025	0.0008	0.1945017592198658	1.5434132352403453	0.0655	0.27332887499096725	1.3558536461757758	0.1076	0.1273502710645342	1.1599925643432265	-0.01275	0.16511604564629964	0.8728094556593488	0.0702	0.22692387018158774	0.6535036415344104	0.1076	0.48749019565646096	1.3412804998226262	-0.01275	0.6775313529834053	1.090482918109512	0.0702	0.6824673626333028	1.111232969927722	0.1076
315	10.529411764705882	0.5503508315043698	0.7540491502937705	0.0301	0.46716578045764334	0.6766325594439659	0.0301	0.651184207930139	0.29857262712471777	0.129	0.8635412436996122	-0.06648190339501228	0.023	0.9114762711173613	-0.20669817297502988	0.2179	0.8523785889745205	-0.21913507629062054	0.1804	0.9189008605160423	-0.11163565257848795	-0.0119	0.6617558410658081	0.7846218765243802	0.0301	0.8023406450812084	0.49609154987408566	0.129	0.9932302013236759	0.01926229438728789	0.023	1.0605450505953213	-0.10704782651921495	0.2179	1.0996741647586934	-0.0837624624185786	0.1804	1.0078034224218482	-0.07275347013105289	-0.0119	0.2812322327442769	1.3192790193975785	0.0008	0.19172489367480747	1.5505813476436847	0.0655	0.27279479899529907	1.3615729634581082	0.1076	0.1251766758972916	1.1599558707973852	-0.01275	0.16811468213787034	0.8731145879120541	0.0702	0.2266098194070649	0.6518247598163656	0.1076	0.48895645760335754	1.3418200698576959	-0.01275	0.6749279376250716	1.0953357018702008	0.0702	0.6836913646536406	1.1101793584001411	0.1076
316	10.562838468720821	0.5484266886075451	0.7561589425715447	0.0301	0.4661115168227631	0.6782711179559218	0.0301	0.6482941242964958	0.2992291505089649	0.129	0.864389816913671	-0.06809131842939994	0.023	0.9100688485661537	-0.2100035184788354	0.2179	0.8533308120595164	-0.2213221327581581	0.1804	0.9217701123785265	-0.11242716595980656	-0.0119	0.6604051962556913	0.7842705248742121	0.0301	0.8043090819669223	0.4937760997689744	0.129	0.9884164958841883	0.02842666119207112	0.023	1.049698724137453	-0.10322487517524555	0.2179	1.0863713573506197	-0.0754187835972898	0.1804	1.0018210361414763	-0.06751894439791387	-0.0119	0.2807101537646352	1.3211160507049549	0.0008	0.18860449881104532	1.5579007043421556	0.0655	0.2705146572410515	1.3691455162640795	0.1076	0.1242395457544115	1.160084899983359	-0.01275	0.1704761656218999	0.8731818440146067	0.0702	0.22792338985102614	0.6497497466609022	0.1076	0.49230897432501425	1.3422420938177364	-0.01275	0.6741140936489846	1.097749279390957	0.0702	0.68344119114692	1.1096307093207567	0.1076
317	10.59626517273576	0.5473695369302053	0.7588216099573385	0.0301	0.4667532080289205	0.6766621013344676	0.0301	0.6495511655571562	0.29579212181984654	0.129	0.86486558948375	-0.06933324207516083	0.023	0.9080317046754566	-0.21175729965858656	0.2179	0.8537669037962923	-0.2207878921616109	0.1804	0.9243644394011797	-0.11446516344264424	-0.0119	0.6589281724401684	0.7850773211414426	0.0301	0.8057447661132416	0.4934450298704884	0.129	0.9865479864209503	0.035948796574533315	0.023	1.03118005186688	-0.10378454171933023	0.2179	1.0650024998811072	-0.0662965751941174	0.1804	0.9995193136632835	-0.06516581021995446	-0.0119	0.2804975297090496	1.322128808872061	0.0008	0.18644469687908916	1.5613136010194373	0.0655	0.2653387041610186	1.3762304530779257	0.1076	0.12468581588849992	1.160936037196043	-0.01275	0.17137006588920084	0.8732685725740592	0.0702	0.22908549789260127	0.6479853602357273	0.1076	0.4948992728062447	1.3407971819867834	-0.01275	0.6751011330922624	1.0935966784735205	0.0702	0.6812635618207101	1.109567397655005	0.1076
318	10.6296918767507	0.5479465282858654	0.7597168753118497	0.0301	0.46869161536482007	0.6717225137116827	0.0301	0.6537371528181429	0.2886617359663674	0.129	0.8644283496261838	-0.06887620974020023	0.023	0.9064111984359516	-0.21234347875525156	0.2179	0.8532301927872884	-0.2184647039320658	0.1804	0.9242348498896722	-0.11570800937534137	-0.0119	0.6584812524230994	0.7877342437670745	0.0301	0.8043212431847854	0.4959758590222302	0.129	0.9863990764251833	0.03735211333049834	0.023	1.0218944845901172	-0.10674018337893214	0.2179	1.0542035192729526	-0.06423276536978575	0.1804	1.000526633667306	-0.06677621862127073	-0.0119	0.2804623922983219	1.3216607804792793	0.0008	0.1844705451573049	1.5643894293239071	0.0655	0.259852127828177	1.3810385279288027	0.1076	0.1254480699994805	1.1618129071622743	-0.01275	0.17115381269638597	0.8730004299308333	0.0702	0.22989293445924652	0.6465837079609159	0.1076	0.4955063076527033	1.338888418896712	-0.01275	0.6750455382892298	1.0889600632372156	0.0702	0.6789347673333163	1.1091102803563442	0.1076
319	10.663118580765639	0.5487291096622313	0.7590437160314928	0.0301	0.4692531753295227	0.666468084666415	0.0301	0.6566723317526896	0.28233063222708826	0.129	0.8630029339296142	-0.06697948062317537	0.023	0.9068186798906006	-0.2128204175602139	0.2179	0.8531944311873917	-0.21692705780127464	0.1804	0.9217826309873253	-0.11278880408070378	-0.0119	0.6593597778516225	0.7909505880055838	0.0301	0.8036542450850809	0.49746433174093324	0.129	0.9876281658475096	0.03386008885618531	0.023	1.0293393027830735	-0.1097840439976599	0.2179	1.0646310466566862	-0.07298263559077663	0.1804	1.0042087532967543	-0.0704266895863229	-0.0119	0.2800832814985817	1.3203640131667123	0.0008	0.1825845863984463	1.5692941663101136	0.0655	0.2570052408672044	1.385251266643697	0.1076	0.12559598882769304	1.1624773218041788	-0.01275	0.17095125047641657	0.8713067731389097	0.0702	0.2306776123784305	0.6450795101777604	0.1076	0.49515111217085406	1.3388344938638412	-0.01275	0.6732730023745479	1.0889334082709767	0.0702	0.678243250580241	1.107380662974518	0.1076
320	10.696545284780578	0.5489765743211881	0.7576547266446039	0.0301	0.4691122347628309	0.6626437719833481	0.0301	0.6571730599150558	0.27870900841178564	0.129	0.8614556855274839	-0.06426456984635091	0.023	0.908119989021117	-0.21204315732911136	0.2179	0.8542947038690543	-0.21542154595637106	0.1804	0.9185731983717809	-0.10720830812611985	-0.0119	0.6615319925755954	0.7902097983688469	0.0301	0.8057974162220195	0.49817652519384525	0.129	0.9918916849451567	0.028431500197095352	0.023	1.0443093773200722	-0.11436070165649621	0.2179	1.0849629655722364	-0.08564548644018036	0.1804	1.0077820016627494	-0.07212884400300691	-0.0119	0.27933938360422983	1.320610971307801	0.0008	0.18189717070293027	1.572606769353672	0.0655	0.25644641896877185	1.3910490137983709	0.1076	0.12484097430078833	1.162868632403442	-0.01275	0.17117334690835984	0.8687883571904853	0.0702	0.2303804011249427	0.6441960989327256	0.1076	0.4955174658376107	1.3401119678986229	-0.01275	0.6727983698561992	1.090285971293306	0.0702	0.6794154778964475	1.1038908010939639	0.1076
321	10.729971988795517	0.5502358965964068	0.7546682005033077	0.0301	0.4709995696614473	0.6605756594336332	0.0301	0.6568953781772109	0.2760388455501564	0.129	0.8608858871941573	-0.06212116920343275	0.023	0.9087442069610862	-0.20886490543482603	0.2179	0.8555130664778753	-0.21277245041445425	0.1804	0.9150097892469523	-0.10410948398852385	-0.0119	0.6653994742854408	0.7836559152981415	0.0301	0.8105802277208959	0.4952903000034114	0.129	1.0002753871037333	0.020174446724081016	0.023	1.0553522098582873	-0.12312013178240372	0.2179	1.1000932752171815	-0.09722476440845364	0.1804	1.0112871836140644	-0.07423291858052732	-0.0119	0.27892210293434955	1.323339496423902	0.0008	0.1815688764818363	1.5749016629333454	0.0655	0.25558204164629267	1.3986239819923616	0.1076	0.1237285657659097	1.1629247048143738	-0.01275	0.17151958335074716	0.8669351564206447	0.0702	0.22860215002178128	0.6440939781294686	0.1076	0.4968496654893162	1.3403962874593658	-0.01275	0.6767132766899011	1.0895012119418614	0.0702	0.6827239959024992	1.0989350487987875	0.1076
322	10.763398692810457	0.5529768534734244	0.7493003848977605	0.0301	0.47347212170721786	0.6597365264145792	0.0301	0.6571822699775741	0.27363359384545355	0.129	0.8613645441948509	-0.061931926420953055	0.023	0.9094880043622519	-0.20490240328623113	0.2179	0.8555957832887288	-0.2108913782917803	0.1804	0.9114290273267679	-0.10490281815138133	-0.0119	0.6698773268290963	0.7754458474657995	0.0301	0.8198842394169907	0.4795022839360275	0.129	1.0129347122849828	0.002705649180711725	0.023	1.0623491204659175	-0.13981238555902978	0.2179	1.11055360985115	-0.11403856845255278	0.1804	1.0196185818555832	-0.0887391771617067	-0.0119	0.2791567773337278	1.3266436597803017	0.0008	0.17947539154660366	1.5822211140510167	0.0655	0.25300334187593476	1.4071109025818622	0.1076	0.12309106286585156	1.1631372685006205	-0.01275	0.17174223645020023	0.866340140103247	0.0702	0.22672905126246315	0.6430569862475759	0.1076	0.4981976141738143	1.339418553027178	-0.01275	0.6841206878139751	1.0883149658356799	0.0702	0.6894605076969953	1.0933111799829216	0.1076
323	10.796825396825396	0.5558998047959866	0.7428563896115902	0.0301	0.4734339728132008	0.6593860587113879	0.0301	0.6575189508194026	0.27294823577649574	0.129	0.8619092884456562	-0.06265777996382225	0.023	0.9111082526508109	-0.20238590008431986	0.2179	0.8539227271743658	-0.21131798055406922	0.1804	0.9092380846999628	-0.1060610723801855	-0.0119	0.6728052878124249	0.7693150964669881	0.0301	0.8339488797397681	0.45125539782836116	0.129	1.0286713772146574	-0.025466543027337748	0.023	1.0696573193025287	-0.16573891139628957	0.2179	1.123042901838376	-0.13972598855819274	0.1804	1.0334262728963017	-0.11915069603452666	-0.0119	0.27940687969709976	1.32947413832135	0.0008	0.17612603685763464	1.595628164318918	0.0655	0.2490367534741464	1.4164404486869435	0.1076	0.12283871362444175	1.164027544705238	-0.01275	0.17159113350709515	0.8672393632071602	0.0702	0.22617424273116646	0.6392313354063458	0.1076	0.4997240997264214	1.3398632525842369	-0.01275	0.6901896050050702	1.0906562026263469	0.0702	0.6999559011794133	1.087977539035091	0.1076
